<svg xmlns="http://www.w3.org/2000/svg" xmlns:xlink="http://www.w3.org/1999/xlink" width="100" zoomAndPan="magnify" viewBox="0 0 75 74.999997" height="100" preserveAspectRatio="xMidYMid meet" version="1.0"><defs><clipPath id="b5146d8d6f"><path d="M 0.632812 0 L 74.132812 0 L 74.132812 73.5 L 0.632812 73.5 Z M 0.632812 0 " clip-rule="nonzero"/></clipPath></defs><g clip-path="url(#b5146d8d6f)"><path fill="#000000" d="M 22.246094 0 C 10.382812 0 0.632812 9.734375 0.632812 21.613281 L 0.632812 51.886719 C 0.632812 63.75 10.367188 73.5 22.246094 73.5 L 52.523438 73.5 C 64.382812 73.5 74.132812 63.765625 74.132812 51.886719 L 74.132812 21.613281 C 74.132812 9.75 64.398438 0 52.523438 0 Z M 22.246094 6.683594 L 52.523438 6.683594 C 60.78125 6.683594 67.453125 13.351562 67.453125 21.613281 L 67.453125 51.886719 C 67.453125 60.148438 60.78125 66.816406 52.523438 66.816406 L 22.246094 66.816406 C 13.984375 66.816406 7.316406 60.148438 7.316406 51.886719 L 7.316406 21.613281 C 7.316406 13.351562 13.984375 6.683594 22.246094 6.683594 Z M 57.117188 13.988281 C 55.433594 13.988281 54.085938 15.335938 54.085938 17.019531 C 54.085938 18.703125 55.433594 20.046875 57.117188 20.046875 C 58.796875 20.046875 60.144531 18.703125 60.144531 17.019531 C 60.144531 15.335938 58.796875 13.988281 57.117188 13.988281 Z M 37.382812 16.703125 C 26.355469 16.703125 17.335938 25.722656 17.335938 36.75 C 17.335938 47.777344 26.355469 56.796875 37.382812 56.796875 C 48.410156 56.796875 57.429688 47.777344 57.429688 36.75 C 57.429688 25.722656 48.410156 16.703125 37.382812 16.703125 Z M 37.382812 23.386719 C 44.808594 23.386719 50.746094 29.324219 50.746094 36.75 C 50.746094 44.175781 44.808594 50.113281 37.382812 50.113281 C 29.957031 50.113281 24.019531 44.175781 24.019531 36.75 C 24.019531 29.324219 29.957031 23.386719 37.382812 23.386719 Z M 37.382812 23.386719 " fill-opacity="1" fill-rule="nonzero"/></g></svg>