<svg xmlns="http://www.w3.org/2000/svg" xmlns:xlink="http://www.w3.org/1999/xlink" width="100" zoomAndPan="magnify" viewBox="0 0 75 74.999997" height="100" preserveAspectRatio="xMidYMid meet" version="1.0"><path fill="#1b1c1c" d="M 74.992188 37.496094 C 74.992188 38.722656 74.933594 39.949219 74.8125 41.171875 C 74.691406 42.390625 74.511719 43.605469 74.273438 44.808594 C 74.035156 46.015625 73.734375 47.203125 73.378906 48.378906 C 73.023438 49.554688 72.609375 50.710938 72.140625 51.84375 C 71.667969 52.980469 71.144531 54.089844 70.566406 55.171875 C 69.988281 56.253906 69.355469 57.308594 68.671875 58.328125 C 67.992188 59.347656 67.261719 60.335938 66.480469 61.285156 C 65.703125 62.234375 64.878906 63.140625 64.011719 64.011719 C 63.140625 64.878906 62.234375 65.703125 61.285156 66.480469 C 60.335938 67.261719 59.347656 67.992188 58.328125 68.671875 C 57.308594 69.355469 56.253906 69.988281 55.171875 70.566406 C 54.089844 71.144531 52.980469 71.667969 51.84375 72.140625 C 50.710938 72.609375 49.554688 73.023438 48.378906 73.378906 C 47.203125 73.734375 46.015625 74.035156 44.808594 74.273438 C 43.605469 74.511719 42.390625 74.691406 41.171875 74.8125 C 39.949219 74.933594 38.722656 74.992188 37.496094 74.992188 C 36.265625 74.992188 35.042969 74.933594 33.820312 74.8125 C 32.597656 74.691406 31.382812 74.511719 30.179688 74.273438 C 28.972656 74.035156 27.785156 73.734375 26.609375 73.378906 C 25.433594 73.023438 24.277344 72.609375 23.144531 72.140625 C 22.007812 71.667969 20.902344 71.144531 19.816406 70.566406 C 18.734375 69.988281 17.683594 69.355469 16.660156 68.671875 C 15.640625 67.992188 14.65625 67.261719 13.707031 66.480469 C 12.757812 65.703125 11.847656 64.878906 10.980469 64.011719 C 10.109375 63.140625 9.285156 62.234375 8.507812 61.285156 C 7.726562 60.335938 6.996094 59.347656 6.316406 58.328125 C 5.632812 57.308594 5.003906 56.253906 4.421875 55.171875 C 3.84375 54.089844 3.320312 52.980469 2.851562 51.84375 C 2.378906 50.710938 1.96875 49.554688 1.609375 48.378906 C 1.253906 47.203125 0.957031 46.015625 0.714844 44.808594 C 0.476562 43.605469 0.296875 42.390625 0.175781 41.171875 C 0.0546875 39.949219 -0.00390625 38.722656 -0.00390625 37.496094 C -0.00390625 36.265625 0.0546875 35.042969 0.175781 33.820312 C 0.296875 32.597656 0.476562 31.382812 0.714844 30.179688 C 0.957031 28.972656 1.253906 27.785156 1.609375 26.609375 C 1.96875 25.433594 2.378906 24.277344 2.851562 23.144531 C 3.320312 22.007812 3.84375 20.902344 4.421875 19.816406 C 5.003906 18.734375 5.632812 17.683594 6.316406 16.660156 C 6.996094 15.640625 7.726562 14.65625 8.507812 13.707031 C 9.285156 12.757812 10.109375 11.847656 10.980469 10.980469 C 11.847656 10.109375 12.757812 9.285156 13.707031 8.507812 C 14.65625 7.726562 15.640625 6.996094 16.660156 6.316406 C 17.683594 5.632812 18.734375 5.003906 19.816406 4.421875 C 20.902344 3.84375 22.007812 3.320312 23.144531 2.851562 C 24.277344 2.378906 25.433594 1.96875 26.609375 1.609375 C 27.785156 1.253906 28.972656 0.957031 30.179688 0.714844 C 31.382812 0.476562 32.597656 0.296875 33.820312 0.175781 C 35.042969 0.0546875 36.265625 -0.00390625 37.496094 -0.00390625 C 38.722656 -0.00390625 39.949219 0.0546875 41.171875 0.175781 C 42.390625 0.296875 43.605469 0.476562 44.808594 0.714844 C 46.015625 0.957031 47.203125 1.253906 48.378906 1.609375 C 49.554688 1.96875 50.710938 2.378906 51.84375 2.851562 C 52.980469 3.320312 54.089844 3.84375 55.171875 4.421875 C 56.253906 5.003906 57.308594 5.632812 58.328125 6.316406 C 59.347656 6.996094 60.335938 7.726562 61.285156 8.507812 C 62.234375 9.285156 63.140625 10.109375 64.011719 10.980469 C 64.878906 11.847656 65.703125 12.757812 66.480469 13.707031 C 67.261719 14.65625 67.992188 15.640625 68.671875 16.660156 C 69.355469 17.683594 69.988281 18.734375 70.566406 19.816406 C 71.144531 20.902344 71.667969 22.007812 72.140625 23.144531 C 72.609375 24.277344 73.023438 25.433594 73.378906 26.609375 C 73.734375 27.785156 74.035156 28.972656 74.273438 30.179688 C 74.511719 31.382812 74.691406 32.597656 74.8125 33.820312 C 74.933594 35.042969 74.992188 36.265625 74.992188 37.496094 Z M 74.992188 37.496094 " fill-opacity="1" fill-rule="nonzero"/><path fill="#ffffff" d="M 37.496094 9.796875 C 22.195312 9.796875 9.796875 22.195312 9.796875 37.496094 C 9.796875 43.042969 11.425781 48.210938 14.238281 52.542969 L 11.234375 63.757812 L 22.445312 60.753906 C 26.777344 63.5625 31.945312 65.195312 37.496094 65.195312 C 52.792969 65.195312 65.195312 52.792969 65.195312 37.496094 C 65.195312 22.195312 52.792969 9.792969 37.496094 9.792969 Z M 37.496094 9.796875 " fill-opacity="1" fill-rule="nonzero"/><path fill="#1b1c1c" d="M 53.125 46.285156 C 53.113281 45.234375 52.472656 44.308594 51.492188 43.925781 L 45.398438 41.574219 C 44.433594 41.199219 43.332031 41.429688 42.597656 42.164062 L 41.046875 43.714844 C 40.972656 43.789062 40.855469 43.808594 40.761719 43.761719 C 38.078125 42.34375 32.644531 36.910156 31.226562 34.226562 C 31.179688 34.132812 31.199219 34.015625 31.277344 33.941406 L 32.824219 32.390625 C 33.558594 31.65625 33.792969 30.558594 33.417969 29.589844 L 31.0625 23.5 C 30.683594 22.515625 29.757812 21.875 28.703125 21.863281 L 27.992188 21.855469 C 26.582031 21.84375 25.21875 22.488281 24.347656 23.589844 C 23.003906 25.289062 21.496094 27.847656 21.933594 30.382812 C 22.152344 31.664062 23.15625 33.691406 25 36.582031 C 28.417969 41.933594 33.054688 46.570312 38.410156 49.988281 C 41.296875 51.832031 43.324219 52.835938 44.605469 53.054688 C 44.910156 53.109375 45.210938 53.132812 45.515625 53.132812 C 47.742188 53.132812 49.902344 51.824219 51.398438 50.640625 C 52.5 49.773438 53.148438 48.410156 53.132812 46.996094 Z M 53.125 46.285156 " fill-opacity="1" fill-rule="nonzero"/></svg>